<?xml version="1.0" encoding="utf-8"?>
<!-- Generator: Adobe Adobe Illustrator 24.2.0, SVG Export Plug-In . SVG Version: 6.00 Build 0)  -->
<svg version="1.1" id="Layer_1" xmlns="http://www.w3.org/2000/svg" xmlns:xlink="http://www.w3.org/1999/xlink" x="0px" y="0px"
	 width="1728px" height="930px" viewBox="0 0 1728 930" style="enable-background:new 0 0 1728 930;" xml:space="preserve">
<style type="text/css">
	.st0{fill:#121111;}
	.st1{fill:#B31414;}
	.st2{opacity:0.6196;fill:#A19A9A;}
	.st3{fill:#FFFFFF;}
	.st4{fill:#FFFFFF;stroke:#FFFFFF;stroke-width:14;stroke-linecap:round;stroke-miterlimit:10;}
	.st5{fill:none;stroke:#FFFFFF;stroke-width:14;stroke-linecap:round;stroke-miterlimit:10;}
</style>
<g>
	<path class="st1" d="M1059.83,123.4c-17.95-0.12-32.56,14.42-32.51,32.37c0.17,71.67,0.56,243.82,0.69,334.58
		c0,2.79,1.85,5.04,4.14,5.04c32.77-0.03,66.09-0.37,99.81-0.43c2.34,0,4.21-2.37,4.13-5.22c-1.42-48.78-1.08-129.27-0.96-150.04
		c0.02-2.78,1.87-5.01,4.14-5.01l26.55,0.06c2.29,0.01,4.13,2.27,4.13,5.07l0.18,149.29c0,2.88,2.34,5.21,5.22,5.21l89.04-0.06
		c3.43,0,6.2-2.77,6.22-6.2l1.35-358.89c0-2.77-1.81-5.03-4.08-5.06c-14.81-0.21-66.38-0.87-95.91-0.34
		c-2.27,0.04-4.09,2.3-4.07,5.08c0.21,41.08,0.42,82.69,0.63,123.77c0.01,2.81-1.84,5.09-4.14,5.08
		c-9.58-0.03-21.74-0.23-27.96-0.35c-2.26-0.04-4.06-2.28-4.07-5.04c0-5.08-0.01-27.23-0.01-41.43c0-6.71,5.48-12.13,12.19-12.05
		l28.09,0.33c0,0,17.91-74.89,15.64-74.94L1059.83,123.4z"/>
	<path class="st1" d="M776.96,496.97l227.61,0.96c4.68,0.02,8.49-3.68,8.51-8.28c0.05-12.89,0.15-38.33,0.34-58.78
		c0.04-4.64-3.8-8.42-8.52-8.39c-37.84,0.19-72.29,0.81-110.68-0.28c-0.29,0-0.2-85.21-0.2-85.21l44.06-0.08
		c0,0,28.29-60.63,28.29-60.63l-71.91,1.56l0.78-79.68l105.05,1.29l0.45-71.04c0,0-110.11-0.91-117.04-1.04
		c-22.01-0.41-68.35-0.99-101.58-1.2c-7.55-0.05-13.7,5.94-13.69,13.36c0.02,59.83,0.09,301.25,0.1,349.12
		C768.53,493.24,772.3,496.95,776.96,496.97z"/>
	<path class="st1" d="M431.37,139.05c-0.01-1.46-1.2-2.64-2.66-2.64L164,137.58c-1.47,0-2.67,1.2-2.65,2.68l-0.38,74.26
		c0.01,1.52,1.3,2.72,2.81,2.63l62.49-3.69c0.56-0.03,2.23,1.56,2.86,2.39c1.3,1.71,1.94,3.83,1.93,5.98l-1.67,276.07
		c1.79-0.11,133.08-0.74,141.57-1.24l-11.63-276.32c-0.09-1.77,1.06-3.74,2.83-3.76c14.06-0.16,66.86,1.74,66.86,1.74
		c1.55,0.11,2.86-1.12,2.85-2.67L431.37,139.05z"/>
	<path class="st1" d="M1485.28,199.2l69.75,5.1c1.55,0.11,2.86-1.12,2.85-2.67l-0.51-76.59c-0.01-1.46-1.2-2.64-2.66-2.64
		L1289,122.58c-1.47,0-2.67,1.2-2.65,2.68l0.62,75.26c0.01,1.52,1.3,2.72,2.81,2.63l62.49-3.69c1.43-0.08,2.67,0.98,2.8,2.4
		l62.67,659.5c0.31,3.21,5,3.2,5.29-0.01l59.4-659.73C1482.57,200.17,1483.83,199.1,1485.28,199.2z"/>
	<path class="st1" d="M567.18,201.36c0,0,7.64-0.35,14.83,0.15c5.7,0.4,11.98,3.36,15.24,6.02c4.27,3.48,9.11,7.13,11.06,17.91
		c1.46,8.07,2.35,12.97-0.08,27.68c-2.9,17.62-19.33,24.2-28.13,24.6c-3.11,0.14-9.6,0-13.14,0.02 M548.91,217.32
		c0.53-1.14,1.07-2.28,1.64-3.4 M756.86,488.91l-77.01-155.39c-1.34-2.7-0.15-5.92,2.61-7.22c45.22-21.34,55.53-65.77,52.98-100.2
		c-4.67-63.22-59.98-92.55-109.97-93.19c-48.78-0.63-154.02-0.91-179.11-0.97c-3.02-0.01-5.46,2.39-5.47,5.35l-1.15,353.2
		c-0.01,2.96,2.42,5.37,5.43,5.39l117.99,0.79c3.04,0.02,5.52-2.41,5.5-5.4l-0.47-89.21c-0.03-5.95,8.33-7.52,10.55-1.99l36.8,92.03
		c0.82,2.04,2.81,3.39,5.04,3.41l131.34,1.13C755.96,496.66,758.64,492.49,756.86,488.91z"/>
</g>
</svg>
