<?xml version="1.0" encoding="utf-8"?>
<!-- Generator: Adobe Adobe Illustrator 24.2.0, SVG Export Plug-In . SVG Version: 6.00 Build 0)  -->
<svg version="1.1" id="Layer_1" xmlns="http://www.w3.org/2000/svg" xmlns:xlink="http://www.w3.org/1999/xlink" x="0px" y="0px"
	 width="1728px" height="930px" viewBox="0 0 1728 930" style="enable-background:new 0 0 1728 930;" xml:space="preserve">
<style type="text/css">
	.st0{fill:#121111;}
	.st1{fill:#B31414;}
	.st2{opacity:0.6196;fill:#A19A9A;}
	.st3{fill:#FFFFFF;}
	.st4{fill:#FFFFFF;stroke:#FFFFFF;stroke-width:14;stroke-linecap:round;stroke-miterlimit:10;}
	.st5{fill:none;stroke:#FFFFFF;stroke-width:14;stroke-linecap:round;stroke-miterlimit:10;}
</style>
<g>
	<path class="st1" d="M1451.81,110.56c0,0,7.95,102.42-16.14,127.41c-10.54,10.93-31.35,20.68-46.35,15.79
		c-1.63-0.01-3.16-0.02-4.36-0.02l0.21-76.39c0,0,0.02,0,0.04,0c-0.25-22.98-0.32-45.96-0.56-68.94
		c-48.45-0.29-103.12-0.43-120.29-0.47c-3.02-0.01-5.46,2.39-5.47,5.35l-1.15,353.2c-0.01,2.96,2.42,5.37,5.43,5.39l117.99,0.79
		c3.04,0.02,5.52-2.41,5.5-5.4l-0.47-89.21c-0.03-5.95,8.33-7.52,10.55-1.99l36.8,92.03c0.82,2.04,2.81,3.39,5.04,3.41l131.34,1.13
		c4.06,0.03,6.74-4.13,4.96-7.72l-77.01-155.39c-0.68-1.37-0.7-2.87-0.21-4.19c0.08-0.55,2.2-1.18,2.69-1.67
		c46.22-46.24,57.66-92.43,55.15-193.28L1451.81,110.56z"/>
	<path class="st1" d="M788.65,460.43l-0.67-352.19c-0.01-4.06,3.24-7.36,7.24-7.36l111.25-0.05c4.01,0,7.25,3.3,7.25,7.36
		l-0.65,352.79c-0.01,4.07-3.27,7.35-7.28,7.33l-109.93-0.55C791.88,467.74,788.66,464.47,788.65,460.43z"/>
	<path class="st1" d="M1126.51,160.98c-43.02,8.35-56.68,40.2-62.32,76.65c-7.25,46.87-1.29,90.33,3.86,112.22
		c6.62,28.17,32.59,57.55,61.42,60.08c28.83,2.53,49.72-13.04,75.49-34.08c10.95,17.99,23.27,20.85,40.56,46.27
		c-80.47,86.52-199.35,70.44-262.87,7.2s-67-185.98-14.54-258.66c52.46-72.68,169.66-98.91,248.85-61.07
		c-0.81,34.42-0.62,72.82-1.12,108.44c-0.05,3.72-5.17,4.72-6.61,1.29C1198.71,194.2,1173.95,151.77,1126.51,160.98z"/>
	<path class="st1" d="M363.28,187.2l69.75,5.1c1.55,0.11,2.86-1.12,2.85-2.67l-0.51-76.59c-0.01-1.46-1.2-2.64-2.66-2.64L167,110.58
		c-1.47,0-2.67,1.2-2.65,2.68l0.62,75.26c0.01,1.52,1.3,2.72,2.81,2.63l62.49-3.69c1.43-0.08,2.67,0.98,2.8,2.4l62.67,659.5
		c0.31,3.21,5,3.2,5.29-0.01l59.4-659.73C360.57,188.17,361.83,187.1,363.28,187.2z"/>
	<path class="st1" d="M587.18,171.36c0,0,7.64-0.35,14.83,0.15c5.7,0.4,11.98,3.36,15.24,6.02c4.27,3.48,9.11,7.13,11.06,17.91
		c1.46,8.07,2.35,12.97-0.08,27.68c-2.9,17.62-19.33,24.2-28.13,24.6c-3.11,0.14-9.6,0-13.14,0.02 M568.91,187.32
		c0.53-1.14,1.07-2.28,1.64-3.4 M776.86,458.91l-77.01-155.39c-1.34-2.7-0.15-5.92,2.61-7.22c45.22-21.34,55.53-65.77,52.98-100.2
		c-4.67-63.22-59.98-92.55-109.97-93.19c-48.78-0.63-154.02-0.91-179.11-0.97c-3.02-0.01-5.46,2.39-5.47,5.35l-1.15,353.2
		c-0.01,2.96,2.42,5.37,5.43,5.39l117.99,0.79c3.04,0.02,5.52-2.41,5.5-5.4l-0.47-89.21c-0.03-5.95,8.33-7.52,10.55-1.99l36.8,92.03
		c0.82,2.04,2.81,3.39,5.04,3.41l131.34,1.13C775.96,466.66,778.64,462.49,776.86,458.91z"/>
</g>
</svg>
